<svg width="24" height="24" viewBox="0 0 24 24" fill="none" xmlns="http://www.w3.org/2000/svg">
    <path d="M14.777 14.038L17.427 10.118C17.689 9.73204 17.192 9.31304 16.812 9.58904L13.954 11.604C13.8583 11.6706 13.7446 11.7062 13.628 11.7062C13.5114 11.7062 13.3977 11.6706 13.302 11.604L11.186 10.127C10.553 9.69004 9.648 9.85004 9.223 10.462L6.573 14.382C6.311 14.768 6.808 15.188 7.188 14.911L10.046 12.896C10.1417 12.8295 10.2554 12.7938 10.372 12.7938C10.4886 12.7938 10.6023 12.8295 10.698 12.896L12.814 14.348C13.447 14.81 14.352 14.65 14.777 14.038Z" fill="black"/>
    <path fill-rule="evenodd" clip-rule="evenodd" d="M12 2.25C9.41414 2.25 6.93419 3.27723 5.10571 5.10571C3.27723 6.93419 2.25 9.41414 2.25 12C2.24845 13.3147 2.5135 14.616 3.02914 15.8254C3.54478 17.0347 4.30029 18.1269 5.25 19.036V21.5C5.24993 21.6189 5.27811 21.736 5.33222 21.8419C5.38633 21.9477 5.46482 22.0391 5.56122 22.1087C5.65761 22.1782 5.76916 22.2239 5.88665 22.2418C6.00415 22.2598 6.12423 22.2496 6.237 22.212L9.017 21.285C9.98114 21.594 10.9875 21.7509 12 21.75C17.385 21.75 21.75 17.385 21.75 12C21.75 6.615 17.385 2.25 12 2.25ZM3.75 12C3.75068 10.2496 4.30808 8.54475 5.3416 7.13202C6.37513 5.7193 7.8312 4.67191 9.49926 4.14133C11.1673 3.61074 12.9609 3.62446 14.6207 4.18049C16.2804 4.73653 17.7203 5.80606 18.7321 7.23442C19.7439 8.66279 20.2752 10.376 20.2491 12.1262C20.223 13.8764 19.6409 15.573 18.587 16.9705C17.533 18.3681 16.0619 19.3942 14.3863 19.9005C12.7107 20.4068 10.9175 20.3671 9.266 19.787C9.10893 19.7318 8.93795 19.7304 8.78 19.783L6.75 20.459V18.709C6.75014 18.6033 6.72794 18.4988 6.68485 18.4023C6.64177 18.3058 6.57877 18.2195 6.5 18.149C5.63376 17.3761 4.94089 16.4286 4.46693 15.3688C3.99297 14.309 3.74864 13.1609 3.75 12Z" fill="black"/>
</svg>
